# Blender 4.2.3 LTS
# www.blender.org
mtllib falcon.mtl
o Cube
v -1.455794 -0.954372 -0.546874
v -1.348915 -0.877117 -0.078402
v 1.902644 -1.077451 -0.768159
v 1.579599 -0.851699 0.549471
v -1.090769 -1.381343 -0.757131
v 0.036337 -1.364033 -0.874754
v 0.833370 -1.204074 -0.760708
v 0.833370 -0.824033 0.932813
v 0.036337 -0.822912 0.914045
v -0.986627 -0.872181 0.298310
v 1.970731 -0.799372 -0.810129
v -2.090647 0.000000 -0.250740
v 1.607432 -0.648978 0.479383
v 2.053672 0.000000 0.161490
v -1.560550 -0.568716 -0.598985
v -1.456365 -0.568716 -0.007780
v 1.970731 -0.799372 0.297741
v -1.623391 -0.568716 -0.313428
v 0.833370 -0.568716 0.654888
v -1.090769 -1.482508 -0.101689
v 0.036337 -0.568716 0.638486
v 0.024872 -1.265220 0.866079
v -0.986627 -0.568716 0.362080
v 0.833370 -0.926063 -0.992422
v 0.833370 -1.185198 0.915254
v 0.036337 -0.926063 -0.974623
v -1.474425 -1.007005 -0.258558
v -0.986627 -0.820101 -0.963996
v 1.902644 -1.077451 0.402796
v 2.053672 0.005163 -0.810129
v 1.684700 0.000000 0.466326
v -1.978157 0.000000 -0.881193
v -1.878761 0.000000 0.291510
v 0.833370 0.000000 0.801310
v 0.036337 0.000000 1.127915
v -0.986627 0.000000 0.950564
v 0.833370 0.000000 -1.000000
v 0.036337 0.000000 -1.000000
v -0.986627 0.000000 -1.000000
v 1.984435 -1.345331 0.254140
v 1.984435 -1.345331 -0.623603
v 1.170070 -1.591982 -0.740017
v -0.635799 -1.776513 -0.400186
v -0.216885 -1.591982 -0.740017
v 1.218568 -1.591982 0.359870
v -0.216885 -1.591982 0.175643
v -0.521867 -1.776513 0.016258
v 1.653976 -0.323235 0.466326
v -1.914092 -0.326240 -0.820788
v 0.833370 -0.326240 0.758535
v 0.036337 -0.326240 1.074531
v -0.986627 -0.326240 0.900215
v -2.023432 -0.326240 -0.271863
v 2.053672 -0.326240 0.161490
v 2.053672 -0.321077 -0.810129
v -1.811547 -0.326240 0.229078
v 0.833370 -0.326240 -0.995049
v 0.036337 -0.326240 -0.995049
v -0.986627 -0.326240 -0.995049
v 1.299366 -1.162965 -0.760708
v 1.285663 -0.819407 0.714904
v 1.285663 -0.926063 -0.992422
v 1.283726 -0.558037 0.495081
v 1.285663 -1.133069 0.591476
v 1.285663 0.000000 0.617918
v 1.285663 0.000000 -1.000000
v 2.019327 -1.591982 -0.731136
v 1.984435 -1.591982 0.149760
v 1.285663 -0.326240 0.536003
v 1.285663 -0.326240 -0.995049
v 1.984435 -1.739388 0.236545
v 0.093701 -1.739388 0.430668
v 0.079998 -1.739388 -0.797997
v 1.244578 -1.739388 -0.879141
v 2.019327 -1.739388 -0.808977
v 1.199368 -1.739388 0.359870
v 0.340341 -1.909780 -0.711612
v 1.244578 -1.872661 -0.783768
v 1.199368 -1.923138 0.617080
v 2.019327 -1.882936 -0.721376
v 1.984435 -1.923138 0.487410
v 0.327323 -1.923138 0.521667
v 1.984435 -1.739388 0.997328
v 1.264076 -1.739388 1.160087
v 0.577108 -1.739388 0.855427
v 1.953612 -1.855257 0.942283
v 1.264076 -1.873808 1.094314
v 0.577108 -1.901214 0.855427
v 2.232210 -1.739388 0.220954
v 2.232210 -1.739388 -0.513682
v 2.163696 -1.880411 0.242824
v 2.163696 -1.879185 -0.451301
v 2.163696 -1.876077 0.631919
v 2.232210 -1.739388 0.631919
v -1.455794 0.954372 -0.546874
v -1.348915 0.877117 -0.078402
v 1.902644 1.077451 -0.768159
v 1.579599 0.851699 0.549471
v -1.090769 1.381343 -0.757131
v 0.036337 1.364033 -0.874754
v 0.833370 1.204074 -0.760708
v 0.833370 0.824033 0.932813
v 0.036337 0.822912 0.914045
v -0.986627 0.872181 0.298310
v 1.970731 0.799372 -0.810129
v 1.607432 0.648978 0.479383
v -1.560550 0.568716 -0.598985
v -1.456365 0.568716 -0.007780
v 1.970731 0.799372 0.297741
v -1.623391 0.568716 -0.313428
v 0.833370 0.568716 0.654888
v -1.090769 1.482508 -0.101689
v 0.036337 0.568716 0.638486
v 0.024872 1.265220 0.866079
v -0.986627 0.568716 0.362080
v 0.833370 0.926063 -0.992422
v 0.833370 1.185198 0.915254
v 0.036337 0.926063 -0.974623
v -1.474425 1.007005 -0.258558
v -0.986627 0.820101 -0.963996
v 1.902644 1.077451 0.402796
v 2.053672 -0.005163 -0.810129
v 1.984435 1.345331 0.254140
v 1.984435 1.345331 -0.623603
v 1.170070 1.591982 -0.740017
v -0.635799 1.776513 -0.400186
v -0.216885 1.591982 -0.740017
v 1.218568 1.591982 0.359870
v -0.216885 1.591982 0.175643
v -0.521867 1.776513 0.016258
v 1.653976 0.323235 0.466326
v -1.914092 0.326240 -0.820788
v 0.833370 0.326240 0.758535
v 0.036337 0.326240 1.074531
v -0.986627 0.326240 0.900215
v -2.023432 0.326240 -0.271863
v 2.053672 0.326240 0.161490
v 2.053672 0.321077 -0.810129
v -1.811547 0.326240 0.229078
v 0.833370 0.326240 -0.995049
v 0.036337 0.326240 -0.995049
v -0.986627 0.326240 -0.995049
v 1.299366 1.162965 -0.760708
v 1.285663 0.819407 0.714904
v 1.285663 0.926063 -0.992422
v 1.283726 0.558037 0.495081
v 1.285663 1.133069 0.591476
v 2.019327 1.591982 -0.731136
v 1.984435 1.591982 0.149760
v 1.285663 0.326240 0.536003
v 1.285663 0.326240 -0.995049
v 1.984435 1.739388 0.236545
v 0.093701 1.739388 0.430668
v 0.079998 1.739388 -0.797997
v 1.244578 1.739388 -0.879141
v 2.019327 1.739388 -0.808977
v 1.199368 1.739388 0.359870
v 0.340341 1.909780 -0.711612
v 1.244578 1.872661 -0.783768
v 1.199368 1.923138 0.617080
v 2.019327 1.882936 -0.721376
v 1.984435 1.923138 0.487410
v 0.327323 1.923138 0.521667
v 1.984435 1.739388 0.997328
v 1.264076 1.739388 1.160087
v 0.577108 1.739388 0.855427
v 1.953612 1.855257 0.942283
v 1.264076 1.873808 1.094314
v 0.577108 1.901214 0.855427
v 2.232210 1.739388 0.220954
v 2.232210 1.739388 -0.513682
v 2.163696 1.880411 0.242824
v 2.163696 1.879185 -0.451301
v 2.163696 1.876077 0.631919
v 2.232210 1.739388 0.631919
vn 0.5107 0.2025 0.8356
vn -0.6753 -0.3136 0.6675
vn -0.6159 -0.2082 -0.7598
vn 0.0299 -0.6682 -0.7434
vn 0.0965 -0.4183 -0.9032
vn -0.0688 -0.2862 -0.9557
vn 0.5139 -0.1754 0.8397
vn -0.0382 -0.0807 0.9960
vn -0.5497 -0.2753 0.7887
vn -0.0076 -0.0470 -0.9989
vn -0.0112 -0.0192 -0.9998
vn -0.0000 -0.0044 -1.0000
vn -0.3842 0.3278 0.8631
vn -0.9371 -0.3095 -0.1614
vn -0.0144 0.7357 0.6772
vn 0.9564 0.2920 -0.0000
vn 0.2780 0.6670 0.6913
vn -0.6421 -0.2703 0.7174
vn 0.3727 -0.4609 0.8054
vn -0.3675 -0.4550 -0.8111
vn -0.7868 -0.2818 0.5491
vn -0.1397 -0.6409 -0.7548
vn 0.5460 0.0676 0.8351
vn -0.9011 -0.2325 0.3660
vn -0.7677 -0.6299 -0.1178
vn -0.6006 -0.1959 0.7752
vn 0.4033 -0.1718 0.8988
vn 0.3704 -0.1354 0.9189
vn -0.1674 -0.1548 0.9737
vn 0.9851 -0.1718 -0.0004
vn -0.9620 -0.2045 -0.1809
vn -0.2888 -0.7269 0.6231
vn 0.0679 -0.2355 -0.9695
vn -0.5519 -0.8337 -0.0200
vn -0.0218 -0.8626 0.5054
vn 0.1891 -0.0278 -0.9816
vn -0.4373 -0.8993 0.0028
vn 0.7498 -0.4084 0.5206
vn -0.5198 -0.8475 -0.1072
vn 1.0000 -0.0000 -0.0000
vn -0.0977 -0.8909 0.4435
vn 0.1246 -0.7380 0.6632
vn 0.3781 -0.2713 0.8851
vn -0.3171 -0.8625 0.3944
vn -0.4684 -0.8557 0.2200
vn 0.6211 -0.0294 0.7832
vn -0.1500 -0.1131 -0.9822
vn -0.0000 -0.0152 -0.9999
vn 0.2371 -0.0074 -0.9715
vn 0.1148 -0.0595 0.9916
vn 0.9979 0.0621 0.0198
vn 0.0083 -0.0507 -0.9987
vn 0.2751 -0.1331 0.9522
vn 0.3057 -0.3806 0.8727
vn 0.3338 0.4859 0.8077
vn 0.2468 -0.0213 -0.9688
vn 0.3572 -0.2383 0.9031
vn 0.1948 -0.4763 -0.8575
vn 0.9713 -0.2378 -0.0000
vn 0.2027 0.2644 0.9429
vn 0.4463 -0.8941 -0.0382
vn -0.0345 0.6341 0.7725
vn 0.0389 0.5986 -0.8001
vn 0.9993 0.0011 0.0362
vn -0.0269 0.5319 -0.8464
vn 0.0212 -0.9995 -0.0238
vn -0.0081 -0.9994 -0.0350
vn -0.0000 1.0000 -0.0000
vn 0.0360 -0.9917 0.1234
vn 0.2006 -0.4458 0.8724
vn -0.3568 -0.2025 0.9120
vn -0.6847 -0.2864 0.6701
vn -0.0014 -0.9961 0.0881
vn -0.0522 -0.5454 -0.8365
vn 0.0676 -0.5502 -0.8323
vn -0.5816 -0.8134 -0.0043
vn 0.8987 -0.4386 -0.0004
vn 0.8968 -0.4423 0.0024
vn 0.1436 -0.9895 -0.0189
vn 0.7615 -0.4373 -0.4783
vn 0.1840 -0.9788 0.0905
vn 0.5107 -0.2025 0.8356
vn -0.6753 0.3136 0.6675
vn -0.6159 0.2082 -0.7598
vn 0.0299 0.6682 -0.7434
vn 0.0965 0.4183 -0.9032
vn -0.0688 0.2862 -0.9557
vn 0.5139 0.1754 0.8397
vn -0.0382 0.0807 0.9960
vn -0.5497 0.2753 0.7887
vn -0.0076 0.0470 -0.9989
vn -0.0112 0.0192 -0.9998
vn -0.0000 0.0044 -1.0000
vn -0.3842 -0.3278 0.8631
vn -0.9371 0.3095 -0.1614
vn -0.0144 -0.7357 0.6772
vn 0.9564 -0.2920 -0.0000
vn 0.2780 -0.6670 0.6913
vn -0.6421 0.2703 0.7174
vn 0.3727 0.4609 0.8054
vn -0.3675 0.4550 -0.8111
vn -0.7868 0.2818 0.5491
vn -0.1397 0.6409 -0.7548
vn 0.5460 -0.0676 0.8351
vn -0.9011 0.2325 0.3660
vn -0.7677 0.6299 -0.1178
vn -0.6006 0.1959 0.7752
vn 0.4033 0.1718 0.8988
vn 0.3704 0.1354 0.9189
vn -0.1674 0.1548 0.9737
vn 0.9851 0.1718 -0.0004
vn -0.9620 0.2045 -0.1809
vn -0.2888 0.7269 0.6231
vn 0.0679 0.2355 -0.9695
vn -0.5519 0.8337 -0.0200
vn -0.0218 0.8626 0.5054
vn 0.1891 0.0278 -0.9816
vn -0.4373 0.8993 0.0028
vn 0.7498 0.4084 0.5206
vn -0.5198 0.8475 -0.1072
vn -0.0977 0.8909 0.4435
vn 0.1246 0.7380 0.6632
vn 0.3781 0.2713 0.8851
vn -0.3171 0.8625 0.3944
vn -0.4684 0.8557 0.2200
vn 0.6211 0.0294 0.7832
vn -0.1500 0.1131 -0.9822
vn -0.0000 0.0152 -0.9999
vn 0.2371 0.0074 -0.9715
vn 0.1148 0.0595 0.9916
vn 0.9979 -0.0621 0.0198
vn 0.0083 0.0507 -0.9987
vn 0.2751 0.1331 0.9522
vn 0.3057 0.3806 0.8727
vn 0.3338 -0.4859 0.8077
vn 0.2468 0.0213 -0.9688
vn 0.3572 0.2383 0.9031
vn 0.1948 0.4763 -0.8575
vn 0.9713 0.2378 -0.0000
vn 0.2027 -0.2644 0.9429
vn 0.4463 0.8941 -0.0382
vn -0.0345 -0.6341 0.7725
vn 0.0389 -0.5986 -0.8001
vn 0.9993 -0.0011 0.0362
vn -0.0269 -0.5319 -0.8464
vn 0.0212 0.9995 -0.0238
vn -0.0081 0.9994 -0.0350
vn -0.0000 -1.0000 -0.0000
vn 0.0360 0.9917 0.1234
vn 0.2006 0.4458 0.8724
vn -0.3568 0.2025 0.9120
vn -0.6847 0.2864 0.6701
vn -0.0014 0.9961 0.0881
vn -0.0522 0.5454 -0.8365
vn 0.0676 0.5502 -0.8323
vn -0.5816 0.8134 -0.0043
vn 0.8987 0.4386 -0.0004
vn 0.8968 0.4423 0.0024
vn 0.1436 0.9895 -0.0189
vn 0.7615 0.4373 -0.4783
vn 0.1840 0.9787 0.0905
vt 0.515757 0.295143
vt 0.625000 0.295143
vt 0.625000 0.500000
vt 0.515756 0.500000
vt 0.515757 0.687500
vt 0.625000 0.687500
vt 0.625000 0.750000
vt 0.515757 0.750000
vt 0.170143 0.687500
vt 0.375000 0.687500
vt 0.375000 0.750000
vt 0.170143 0.750000
vt 0.170143 0.531250
vt 0.375000 0.531250
vt 0.375000 0.562500
vt 0.170143 0.562500
vt 0.375000 0.625000
vt 0.170143 0.625000
vt 0.515757 0.531250
vt 0.625000 0.531250
vt 0.625000 0.562500
vt 0.515757 0.562500
vt 0.625000 0.625000
vt 0.515757 0.625000
vt 0.197831 0.625000
vt 0.197831 0.687500
vt 0.197831 0.562500
vt 0.197831 0.531250
vt 0.829857 0.625000
vt 0.829857 0.687500
vt 0.515757 0.954857
vt 0.375000 0.954857
vt 0.829857 0.562500
vt 0.375000 0.500000
vt 0.829857 0.531250
vt 0.829857 0.750000
vt 0.197831 0.750000
vt 0.625000 0.954857
vt 0.515757 0.322831
vt 0.634350 0.323017
vt 0.515757 0.927169
vt 0.625000 0.927168
vt 0.625000 0.875000
vt 0.515757 0.875000
vt 0.802169 0.687500
vt 0.750000 0.687500
vt 0.750000 0.750000
vt 0.802168 0.750000
vt 0.802169 0.531250
vt 0.750000 0.531250
vt 0.750000 0.562500
vt 0.802169 0.562500
vt 0.750000 0.625000
vt 0.802169 0.625000
vt 0.375000 0.322831
vt 0.375000 0.295143
vt 0.375000 0.927168
vt 0.375000 0.875000
vt 0.375000 0.375000
vt 0.515757 0.375000
vt 0.625000 0.375000
vt 0.250000 0.687500
vt 0.250000 0.750000
vt 0.250000 0.531250
vt 0.250000 0.562500
vt 0.250000 0.625000
vt 0.250000 0.500000
vt 0.197831 0.500000
vt 0.829857 0.500000
vt 0.802169 0.508413
vt 0.750000 0.500000
vt 0.170143 0.500000
s 0
usemtl Blue
f 17/1/1 13/2/1 4/3/1 29/4/1
f 20/5/2 10/6/2 2/7/2 27/8/2
f 28/9/3 5/10/3 1/11/3 15/12/3
f 62/13/4 60/14/4 7/15/4 24/16/4
f 24/16/5 7/15/5 6/17/5 26/18/5
f 26/18/6 6/17/6 5/10/6 28/9/6
f 64/19/7 61/20/7 8/21/7 25/22/7
f 25/22/8 8/21/8 9/23/8 22/24/8
f 22/24/9 9/23/9 10/6/9 20/5/9
f 58/25/10 26/18/10 28/9/10 59/26/10
f 57/27/11 24/16/11 26/18/11 58/25/11
f 70/28/12 62/13/12 24/16/12 57/27/12
f 9/23/13 21/29/13 23/30/13 10/6/13
f 1/11/14 27/8/14 18/31/14 15/32/14
f 8/21/15 19/33/15 21/29/15 9/23/15
f 3/34/16 29/4/16 40/4/16 41/34/16
f 61/20/17 63/35/17 19/33/17 8/21/17
f 10/6/18 23/30/18 16/36/18 2/7/18
f 64/19/19 25/22/19 45/22/19 68/19/19
f 59/26/20 28/9/20 15/12/20 49/37/20
f 27/8/21 2/7/21 16/38/21 18/31/21
f 5/10/22 6/17/22 44/17/22 43/10/22
f 54/39/23 48/40/23 13/2/23 17/1/23
f 5/10/25 20/5/25 27/8/25 1/11/25
f 69/49/27 65/50/27 34/51/27 50/52/27
f 55/55/30 54/39/30 17/1/30 11/56/30
f 22/24/32 20/5/32 47/5/32 46/24/32
f 6/17/33 7/15/33 42/15/33 44/17/33
f 20/5/34 5/10/34 43/10/34 47/5/34
f 25/22/35 22/24/35 46/24/35 45/22/35
f 60/14/36 3/34/36 41/34/36 67/14/36
f 46/24/37 44/17/37 73/17/37 72/24/37
f 83/19/38 86/19/38 93/19/38 94/19/38
f 30/59/40 14/60/40 54/39/40 55/55/40
f 63/35/43 69/49/43 50/52/43 19/33/43
f 14/60/46 31/61/46 48/40/46 54/39/46
f 39/62/47 59/26/47 49/37/47 32/63/47
f 66/64/48 70/28/48 57/27/48 37/65/48
f 37/65/48 57/27/48 58/25/48 38/66/48
f 38/66/48 58/25/48 59/26/48 39/62/48
f 30/67/49 55/68/49 70/28/49 66/64/49
f 13/69/50 48/70/50 69/49/50 63/35/50
f 41/34/51 40/4/51 68/19/51 67/14/51
f 7/15/52 60/14/52 67/14/52 42/15/52
f 48/70/53 31/71/53 65/50/53 69/49/53
f 29/4/54 64/19/54 68/19/54 40/4/54
f 4/3/55 13/69/55 63/35/55 61/20/55
f 55/68/56 11/72/56 62/13/56 70/28/56
f 29/4/57 4/3/57 61/20/57 64/19/57
f 11/72/58 3/34/58 60/14/58 62/13/58
f 29/4/59 3/34/59 11/56/59 17/1/59
f 68/19/60 45/22/60 76/22/60 71/19/60
f 43/10/61 44/17/61 46/24/61 47/5/61
f 45/22/62 46/24/62 72/24/62 76/22/62
f 42/15/63 67/14/63 75/14/63 74/15/63
f 67/14/64 68/19/64 71/19/64 75/14/64
f 44/17/65 42/15/65 74/15/65 73/17/65
f 77/17/66 78/15/66 79/22/66 82/24/66
f 80/14/67 81/19/67 79/22/67 78/15/67
f 75/14/68 71/19/68 89/19/68 90/14/68
f 79/22/69 81/19/69 86/19/69 87/22/69
f 83/19/70 84/22/70 87/22/70 86/19/70
f 84/22/71 85/24/71 88/24/71 87/22/71
f 71/19/68 76/22/68 84/22/68 83/19/68
f 76/22/68 72/24/68 85/24/68 84/22/68
f 72/24/72 82/24/72 88/24/72 85/24/72
f 82/24/73 79/22/73 87/22/73 88/24/73
f 73/17/74 74/15/74 78/15/74 77/17/74
f 74/15/75 75/14/75 80/14/75 78/15/75
f 72/24/76 73/17/76 77/17/76 82/24/76
f 90/14/77 89/19/77 91/19/77 92/14/77
f 91/19/78 89/19/78 94/19/78 93/19/78
f 81/19/79 80/14/79 92/14/79 91/19/79
f 71/19/68 83/19/68 94/19/68 89/19/68
f 80/14/80 75/14/80 90/14/80 92/14/80
f 86/19/81 81/19/81 91/19/81 93/19/81
f 109/1/82 121/4/82 98/3/82 106/2/82
f 112/5/83 119/8/83 96/7/83 104/6/83
f 120/9/84 107/12/84 95/11/84 99/10/84
f 145/13/85 116/16/85 101/15/85 143/14/85
f 116/16/86 118/18/86 100/17/86 101/15/86
f 118/18/87 120/9/87 99/10/87 100/17/87
f 147/19/88 117/22/88 102/21/88 144/20/88
f 117/22/89 114/24/89 103/23/89 102/21/89
f 114/24/90 112/5/90 104/6/90 103/23/90
f 141/25/91 142/26/91 120/9/91 118/18/91
f 140/27/92 141/25/92 118/18/92 116/16/92
f 151/28/93 140/27/93 116/16/93 145/13/93
f 103/23/94 104/6/94 115/30/94 113/29/94
f 95/11/95 107/32/95 110/31/95 119/8/95
f 102/21/96 103/23/96 113/29/96 111/33/96
f 97/34/97 124/34/97 123/4/97 121/4/97
f 144/20/98 102/21/98 111/33/98 146/35/98
f 104/6/99 96/7/99 108/36/99 115/30/99
f 147/19/100 149/19/100 128/22/100 117/22/100
f 142/26/101 132/37/101 107/12/101 120/9/101
f 119/8/102 110/31/102 108/38/102 96/7/102
f 99/10/103 126/10/103 127/17/103 100/17/103
f 137/39/104 109/1/104 106/2/104 131/40/104
f 99/10/106 95/11/106 119/8/106 112/5/106
f 150/49/108 133/52/108 34/51/108 65/50/108
f 138/55/111 105/56/111 109/1/111 137/39/111
f 114/24/113 129/24/113 130/5/113 112/5/113
f 100/17/114 127/17/114 125/15/114 101/15/114
f 112/5/115 130/5/115 126/10/115 99/10/115
f 117/22/116 128/22/116 129/24/116 114/24/116
f 143/14/117 148/14/117 124/34/117 97/34/117
f 129/24/118 153/24/118 154/17/118 127/17/118
f 164/19/119 175/19/119 174/19/119 167/19/119
f 122/59/40 138/55/40 137/39/40 14/60/40
f 146/35/123 111/33/123 133/52/123 150/49/123
f 14/60/126 137/39/126 131/40/126 31/61/126
f 39/62/127 32/63/127 132/37/127 142/26/127
f 66/64/128 37/65/128 140/27/128 151/28/128
f 37/65/128 38/66/128 141/25/128 140/27/128
f 38/66/128 39/62/128 142/26/128 141/25/128
f 122/67/129 66/64/129 151/28/129 138/68/129
f 106/69/130 146/35/130 150/49/130 131/70/130
f 124/34/131 148/14/131 149/19/131 123/4/131
f 101/15/132 125/15/132 148/14/132 143/14/132
f 131/70/133 150/49/133 65/50/133 31/71/133
f 121/4/134 123/4/134 149/19/134 147/19/134
f 98/3/135 144/20/135 146/35/135 106/69/135
f 138/68/136 151/28/136 145/13/136 105/72/136
f 121/4/137 147/19/137 144/20/137 98/3/137
f 105/72/138 145/13/138 143/14/138 97/34/138
f 121/4/139 109/1/139 105/56/139 97/34/139
f 149/19/140 152/19/140 157/22/140 128/22/140
f 126/10/141 130/5/141 129/24/141 127/17/141
f 128/22/142 157/22/142 153/24/142 129/24/142
f 125/15/143 155/15/143 156/14/143 148/14/143
f 148/14/144 156/14/144 152/19/144 149/19/144
f 127/17/145 154/17/145 155/15/145 125/15/145
f 158/17/146 163/24/146 160/22/146 159/15/146
f 161/14/147 159/15/147 160/22/147 162/19/147
f 156/14/148 171/14/148 170/19/148 152/19/148
f 160/22/149 168/22/149 167/19/149 162/19/149
f 164/19/150 167/19/150 168/22/150 165/22/150
f 165/22/151 168/22/151 169/24/151 166/24/151
f 152/19/148 164/19/148 165/22/148 157/22/148
f 157/22/148 165/22/148 166/24/148 153/24/148
f 153/24/152 166/24/152 169/24/152 163/24/152
f 163/24/153 169/24/153 168/22/153 160/22/153
f 154/17/154 158/17/154 159/15/154 155/15/154
f 155/15/155 159/15/155 161/14/155 156/14/155
f 153/24/156 163/24/156 158/17/156 154/17/156
f 171/14/157 173/14/157 172/19/157 170/19/157
f 172/19/158 174/19/158 175/19/158 170/19/158
f 162/19/159 172/19/159 173/14/159 161/14/159
f 152/19/148 170/19/148 175/19/148 164/19/148
f 161/14/160 173/14/160 171/14/160 156/14/160
f 167/19/161 174/19/161 172/19/161 162/19/161
usemtl Green
f 53/41/24 56/42/24 33/43/24 12/44/24
f 52/45/26 36/46/26 33/47/26 56/48/26
f 50/52/28 34/51/28 35/53/28 51/54/28
f 51/54/29 35/53/29 36/46/29 52/45/29
f 49/57/31 53/41/31 12/44/31 32/58/31
f 15/32/39 18/31/39 53/41/39 49/57/39
f 21/29/41 51/54/41 52/45/41 23/30/41
f 19/33/42 50/52/42 51/54/42 21/29/42
f 23/30/44 52/45/44 56/48/44 16/36/44
f 18/31/45 16/38/45 56/42/45 53/41/45
f 136/41/105 12/44/105 33/43/105 139/42/105
f 135/45/107 139/48/107 33/47/107 36/46/107
f 133/52/109 134/54/109 35/53/109 34/51/109
f 134/54/110 135/45/110 36/46/110 35/53/110
f 132/57/112 32/58/112 12/44/112 136/41/112
f 107/32/120 132/57/120 136/41/120 110/31/120
f 113/29/121 115/30/121 135/45/121 134/54/121
f 111/33/122 113/29/122 134/54/122 133/52/122
f 115/30/124 108/36/124 139/48/124 135/45/124
f 110/31/125 136/41/125 139/42/125 108/38/125
